<svg xmlns="http://www.w3.org/2000/svg" fill="none" viewBox="0 0 512 512"><g clip-path="url(#a)"><mask id="b" width="484" height="512" x="14" y="0" maskUnits="userSpaceOnUse" style="mask-type:luminance"><path fill="#fff" d="M14 0h484v512H14z"/></mask><g mask="url(#b)"><mask id="c" width="484" height="512" x="14" y="0" maskUnits="userSpaceOnUse" style="mask-type:luminance"><path fill="#fff" d="M14 0h484v512H14z"/></mask><g mask="url(#c)"><path fill="url(#d)" d="m496 86-18 272L312 0zM380 438l-124 72-126-72 24-62h202zM256 136l64 160H190zM32 358 14 86 198 0z"/><path fill="url(#e)" d="m496 86-18 272L312 0zM380 438l-124 72-126-72 24-62h202zM256 136l64 160H190zM32 358 14 86 198 0z"/></g></g></g><defs><linearGradient id="d" x1="120.4" x2="504" y1="463.8" y2="281.4" gradientUnits="userSpaceOnUse"><stop stop-color="#e40035"/><stop offset=".2" stop-color="#f60a48"/><stop offset=".4" stop-color="#f20755"/><stop offset=".5" stop-color="#dc087d"/><stop offset=".7" stop-color="#9717e7"/><stop offset="1" stop-color="#6c00f5"/></linearGradient><linearGradient id="e" x1="103" x2="354" y1="61.4" y2="348" gradientUnits="userSpaceOnUse"><stop stop-color="#ff31d9"/><stop offset="1" stop-color="#ff5be1" stop-opacity="0"/></linearGradient><clipPath id="a"><path fill="#fff" d="M14 0h484v512H14z"/></clipPath></defs></svg>