<svg xmlns="http://www.w3.org/2000/svg" width="400" height="400" fill="none" viewBox="0 0 400 400">
  <style>
    path { fill: #000; }
    @media (prefers-color-scheme: dark) {
      path { fill: #fff; }
    }
  </style>
  <path d="m395.215 137.254-118.32 125.491H400V319H147.979L371.903 81h23.312v56.254Zm-153.289 0h-37.697c3.814 9.944 5.973 20.916 6.474 32.641h-65.031c-.867-9.965-4.914-17.794-12.14-23.488-6.936-5.694-16.33-8.541-28.18-8.541-13.007 0-22.978 3.275-29.915 9.822-6.936 6.548-10.405 16.085-10.405 28.612v53.824c0 12.241 3.469 21.779 10.406 28.611 6.936 6.548 16.908 9.822 29.914 9.822 5.375 0 10.244-.559 14.609-1.672l-47.517 50.504c-8.036-1.159-15.565-3.143-22.587-6.538-15.896-7.972-28.18-18.932-36.85-32.881C4.336 263.735 0 248.913 0 230.124v-55.515c0-19.074 4.336-35.586 13.007-49.536 8.67-13.949 20.954-24.767 36.85-32.454C65.754 84.648 84.252 81 105.352 81h189.501l-52.927 56.254Z"/>
</svg>
